<?xml version="1.0" encoding="UTF-8"?>
<svg version="1.1" viewBox="0 0 937.14 1034.3" xmlns="http://www.w3.org/2000/svg" xmlns:xlink="http://www.w3.org/1999/xlink">
 <defs>
  <linearGradient id="a">
   <stop stop-color="#5e5e5e" offset="0"/>
   <stop stop-color="#797979" offset="1"/>
  </linearGradient>
  <linearGradient id="ab">
   <stop stop-color="#6b6b6b" offset="0"/>
   <stop stop-color="#474747" offset="1"/>
  </linearGradient>
  <radialGradient id="ay" cx="-379.88" cy="478.66" r="222.69" gradientTransform="matrix(1.3087 -.17365 .095115 .71682 785.83 -61.731)" gradientUnits="userSpaceOnUse">
   <stop stop-color="#383330" offset="0"/>
   <stop stop-color="#3f3730" offset=".52913"/>
   <stop stop-color="#423830" offset=".69625"/>
   <stop stop-color="#483b30" offset=".86338"/>
   <stop stop-color="#5b4530" offset="1"/>
  </radialGradient>
  <linearGradient id="ac">
   <stop stop-color="#fec670" offset="0"/>
   <stop stop-color="#fed9a2" offset=".33296"/>
   <stop stop-color="#fddaa2" offset=".48557"/>
   <stop stop-color="#fed9a2" offset=".65725"/>
   <stop stop-color="#fac768" offset="1"/>
  </linearGradient>
  <linearGradient id="ba" x1="-535.19" x2="-72.735" y1="413.04" y2="418.88" gradientTransform="translate(713.17)" gradientUnits="userSpaceOnUse" xlink:href="#ac"/>
  <linearGradient id="ad" x1="-1235.1" x2="-1099.5" y1="812.18" y2="812.18" gradientTransform="translate(1567.8 -2.0711)" gradientUnits="userSpaceOnUse" xlink:href="#ac"/>
  <linearGradient id="ae" x1="-1422.6" x2="-1296.6" y1="755.58" y2="755.58" gradientTransform="translate(1564.8 .95939)" gradientUnits="userSpaceOnUse" xlink:href="#ac"/>
  <linearGradient id="af" x1="-1194.4" x2="-1065.9" y1="611.28" y2="611.28" gradientTransform="translate(1564.8 .95939)" gradientUnits="userSpaceOnUse" xlink:href="#ac"/>
  <linearGradient id="ag" x1="-1072.1" x2="-1146.4" y1="588.08" y2="765.22" gradientTransform="translate(1564.8 .95939)" gradientUnits="userSpaceOnUse">
   <stop stop-color="#80d496" offset="0"/>
   <stop stop-color="#57b770" offset="1"/>
  </linearGradient>
  <linearGradient id="ah" x1="-121.43" x2="-106.43" y1="818.08" y2="971.65" gradientUnits="userSpaceOnUse" xlink:href="#ab"/>
  <linearGradient id="ai" x1="-49.286" x2="-53.571" y1="957.36" y2="840.93" gradientUnits="userSpaceOnUse" xlink:href="#a"/>
  <linearGradient id="aj" x1="530.86" x2="455.81" y1="645.78" y2="753.67" gradientUnits="userSpaceOnUse">
   <stop stop-color="#78ce8f" offset="0"/>
   <stop stop-color="#47a55f" offset="1"/>
  </linearGradient>
  <linearGradient id="ak" x1="332.55" x2="255.57" y1="597.82" y2="698.83" gradientUnits="userSpaceOnUse">
   <stop stop-color="#71c988" offset="0"/>
   <stop stop-color="#47a55f" offset="1"/>
  </linearGradient>
  <linearGradient id="al" x1="-210.36" x2="-153.57" y1="864.15" y2="744.86" gradientTransform="translate(170.36 8.2143)" gradientUnits="userSpaceOnUse">
   <stop stop-color="#5e5e5e" offset="0"/>
   <stop stop-color="#616161" offset=".35577"/>
   <stop stop-color="#a0a0a0" offset="1"/>
  </linearGradient>
  <linearGradient id="am" x1="4.2679" x2="-7.4739" y1="772.16" y2="792.52" gradientUnits="userSpaceOnUse" xlink:href="#ab"/>
  <linearGradient id="an" x1="1116.5" x2="1100.4" y1="845.91" y2="733.06" gradientTransform="translate(145.08 -283.73)" gradientUnits="userSpaceOnUse" xlink:href="#a"/>
  <linearGradient id="ao" x1="855.93" x2="1150.9" y1="559.98" y2="876.41" gradientTransform="translate(145.08 -283.73)" gradientUnits="userSpaceOnUse" xlink:href="#ab"/>
  <linearGradient id="ap" x1="1313" x2="949.04" y1="433.99" y2="699.66" gradientTransform="translate(145.08 -283.73)" gradientUnits="userSpaceOnUse">
   <stop stop-color="#e1e7fa" offset="0"/>
   <stop stop-color="#8697e8" offset="1"/>
  </linearGradient>
  <linearGradient id="aq" x1="1125.4" x2="1053.7" y1="784.21" y2="250.85" gradientTransform="translate(145.08 -283.73)" gradientUnits="userSpaceOnUse" xlink:href="#a"/>
  <linearGradient id="ar" x1="-66.214" x2="-28.786" y1="625.22" y2="226.65" gradientUnits="userSpaceOnUse" xlink:href="#a"/>
  <linearGradient id="as" x1="124.5" x2="-163.07" y1="181.52" y2="255.09" gradientUnits="userSpaceOnUse" xlink:href="#a"/>
  <linearGradient id="at" x1="177.36" x2="29.786" y1="340.22" y2="348.08" gradientUnits="userSpaceOnUse" xlink:href="#a"/>
  <radialGradient id="az" cx="-846.07" cy="375.58" r="6.1571" gradientTransform="matrix(2.8055 5.4139e-6 -7.5245e-6 3.8758 1527.6 -1080.1)" gradientUnits="userSpaceOnUse">
   <stop stop-color="#444" offset="0"/>
   <stop stop-color="#797979" offset="1"/>
  </radialGradient>
  <linearGradient id="au" x1="-31.214" x2="-44.5" y1="218.81" y2="269.52" gradientUnits="userSpaceOnUse" xlink:href="#ab"/>
  <linearGradient id="av" x1="74.134" x2="82.763" y1="452.35" y2="-229.08" gradientUnits="userSpaceOnUse" xlink:href="#a"/>
  <linearGradient id="aw" x1="72.731" x2="72.731" y1="993.77" y2="72.549" gradientUnits="userSpaceOnUse">
   <stop stop-color="#dce1c6" offset="0"/>
   <stop stop-color="#e6f2b5" offset="1"/>
  </linearGradient>
  <linearGradient id="ax" x1="724.15" x2="751.86" y1="347.11" y2="348.87" gradientTransform="matrix(.99649 -.083654 .083654 .99649 -165.66 135.01)" gradientUnits="userSpaceOnUse">
   <stop stop-color="#fbce7e" offset="0"/>
   <stop stop-color="#ecb869" offset="1"/>
  </linearGradient>
 </defs>
 <g transform="translate(25.714 10.495)">
  <rect x="-25.714" y="-10.495" width="937.14" height="1034.3" ry="69.702" fill="url(#aw)"/>
  <g transform="translate(130,10)">
   <path d="m-97.857 188.79 120 36.429-2.1429 292.14-11.429 5.7143-102.86-41.429z" fill="url(#ar)"/>
   <path d="m22.143 225.22 165-37.86-74.11-21.99-210.89 23.42z" fill="url(#as)"/>
   <path d="m20 517.36 167.14-83.571v-246.43l-165 37.857z" fill="url(#at)"/>
   <path transform="translate(845 -32.143)" d="m-840.71 375.58c0 7.298-2.3985 13.214-5.3571 13.214-2.9587 0-5.3571-5.9162-5.3571-13.214 0-7.298 2.3985-13.214 5.3571-13.214 2.9587 0 5.3571 5.9162 5.3571 13.214z" fill="url(#az)" stroke="#4d4d4d" stroke-linecap="round" stroke-linejoin="round" stroke-width="1.6"/>
   <path d="m-84.286 246.29 90.462 31.908 0.25254-35.837-90.625-27.232z" fill="url(#au)"/>
   <path d="m80.156 236.97c-3.319 0.19-5.906 6.31-5.906 14.41v65.562c0 8.6305 2.9249 16.12 6.5625 16.781 3.6376 0.66115 6.5938-5.7445 6.5938-14.375v-65.562c0-8.6305-2.9562-16.12-6.5938-16.781-0.22735-0.0413-0.43498-0.044-0.65625-0.0312zm-14.25 5.03c-3.319 0.19-5.906 6.33-5.906 14.41v65.469c0 8.6192 2.9562 16.09 6.5938 16.75 3.6376 0.66029 6.5625-5.7558 6.5625-14.375v-65.469c0-8.6192-2.9249-16.09-6.5625-16.75-0.22735-0.0413-0.46623-0.044-0.6875-0.0312zm-14.469 5.5312c-3.319 0.18969-5.875 6.2746-5.875 14.281v64.875c0 8.5404 2.9249 15.94 6.5625 16.594 3.6376 0.65425 6.5625-5.6783 6.5625-14.219v-64.875c0-8.5404-2.9249-15.971-6.5625-16.625-0.22735-0.0409-0.46623-0.0439-0.6875-0.0312zm28.719 103.85c-3.319 0.19-5.906 6.31-5.906 14.4v65.562c0 8.6305 2.9249 16.12 6.5625 16.781 3.6376 0.66115 6.5938-5.7758 6.5938-14.406v-65.531c0-8.6305-2.9562-16.12-6.5938-16.781-0.22735-0.0413-0.43498-0.044-0.65625-0.0312zm-14.25 5.0312c-3.319 0.19-5.906 6.32-5.906 14.4v65.469c0 8.6192 2.9562 16.09 6.5938 16.75 3.6376 0.66029 6.5625-5.7558 6.5625-14.375v-65.469c0-8.6192-2.9249-16.09-6.5625-16.75-0.22735-0.0413-0.46623-0.044-0.6875-0.0312zm-14.468 5.53c-3.319 0.18969-5.875 6.2746-5.875 14.281v64.875c0 8.5404 2.9249 15.94 6.5625 16.594 3.6376 0.65425 6.5625-5.7096 6.5625-14.25v-64.875c0-8.5404-2.9249-15.94-6.5625-16.594-0.22735-0.0409-0.46623-0.0439-0.6875-0.0312z" fill="url(#av)" stroke="#4d4d4d" stroke-width=".5"/>
  </g>
  <path d="m617.47 506.03a3.0003 3.0003 0 0 0 -0.6875 5.9375s38.024 8.2807 80.406 23.438c42.383 15.157 88.992 37.607 105.75 63.906 8.6419 13.562 11.005 22.503 9.9688 27.438-0.5179 2.4674-1.6938 4.1158-3.75 5.5625s-5.0666 2.5449-8.8438 3.25c-15.109 2.8206-41.502-1.1051-64.5-1.9062-11.744-0.40913-22.779 0.16385-31.719 1.5625-8.9401 1.3986-15.692 3.2335-19.562 7-1.9353 1.8832-2.9485 5.0801-1.8125 7.7188s3.4718 4.5653 6.875 6.5c6.8063 3.8694 18.468 7.7106 36.906 11.719 22.748 4.9449 45.402 12.754 64.719 25.281 12.33 7.9966 19.003 13.72 20.906 16.625 0.47579 0.72625 0.62788 1.2241 0.65625 1.4062 0.0284 0.18214 0.0333 0.0278 0.0312 0.0312-4e-3 7e-3 -0.83464 0.76971-2.8438 1.3125-4.0182 1.0856-11.588 1.5198-20.719 1.7812-9.1307 0.26142-19.929 0.4371-31 1.3125-7.8974 0.62446-12.838 3.1713-15.75 5.7812-1.4558 1.305-2.4171 2.6094-3 3.5938-0.23009 0.38856-0.34381 0.68077-0.46875 0.9375a3.0003 3.0003 0 0 0 -0.05 0.05 3.0003 3.0003 0 0 0 -0.0937 0.1875 3.0003 3.0003 0 0 0 2.3125 4.625c6.6e-4 5e-5 0.99928-0.0936 1-0.0937 7.2e-4 -2e-4 0.51175-0.18282 0.6875-0.28125 0.35149-0.19687 0.52237-0.36513 0.65625-0.5 0.26775-0.26973 0.33829-0.42465 0.40625-0.53125 0.13592-0.21321 0.18445-0.27377 0.21875-0.34375 0.0686-0.13995 0.083-0.22319 0.125-0.3125 0.084-0.17863 0.21082-0.37899 0.375-0.65625 0.32836-0.55452 0.86749-1.3404 1.8125-2.1875 1.89-1.6941 5.3783-3.7404 12.219-4.2812 10.823-0.85579 21.494-1.018 30.688-1.2812 9.1935-0.26322 16.804-0.53128 22.125-1.9688 2.6604-0.71874 5.0338-1.676 6.4375-4.0312 0.70183-1.1776 0.96012-2.6821 0.75-4.0312-0.21012-1.3492-0.77283-2.5759-1.5625-3.7812-3.1587-4.8214-10.108-10.237-22.656-18.375-20.154-13.071-43.496-21.077-66.719-26.125-18.158-3.9472-29.535-7.8311-35.219-11.062-2.8421-1.6157-4.0838-3.1251-4.3125-3.6562-0.22867-0.53113-0.34778-0.26791 0.46875-1.0625 1.6331-1.5892 7.8362-4.0226 16.281-5.3438 8.4451-1.3212 19.215-1.8975 30.625-1.5 22.438 0.78169 48.558 5.0279 65.781 1.8125 4.3059-0.80384 8.1081-2.0834 11.188-4.25 3.0794-2.1666 5.3686-5.3486 6.1875-9.25 1.64-7.8-1.79-17.77-10.78-31.88-18.57-29.14-65.98-51.03-108.78-66.34s-81.16-23.63-81.16-23.63a3.0003 3.0003 0 0 0 -0.59375 -0.0937z" color="#000000" fill="#474747" style="block-progression:tb;text-indent:0;text-transform:none"/>
  <g transform="translate(-711.43 -5.7143)">
   <path d="m1273.2 535.5c31.748 3.2078 65.854 10.818 90.595 25.859 30.488 18.535 17.191 65.525-38.019 61.565l-169.29-12.143 15-95.714z" fill="#1a1a1a"/>
   <path d="m1275 529.78c31.748 3.2078 64.086 10.818 88.827 25.859 30.488 18.535 17.191 65.525-38.019 61.565l-169.29-12.143 15-95.714z" fill="url(#ao)"/>
   <path d="m1286.9 501.29 2.0203 57.579c-23.624 14.135-48.851 22.585-82.832 0l1.0102-79.802z" fill="url(#an)"/>
   <path d="m985.18 99.789-23.216 363.54 570.14 84.292 64.047-415.19z" fill="url(#aq)"/>
   <path d="m1010.1 142.69-18.183 293.95 491.94 72.731 55.262-345.3z" fill="url(#ap)"/>
  </g>
  <path d="m459.44 555.09-1.4286 20.372c-0.2845 4.0574 3.7227 5.7187 8.9286 6.4286l31.428 4.2857-68.214 83.214-59.286-11.429 2.8572-80.714 25.357-1.4286c6.0915-0.34318 5.0312-11.417 6.7857-18.571z" fill="url(#af)"/>
  <path d="m320.22 340.2c-3.9249 23.765-12.807 42.426-21.769 58.776-37.219 67.907-30.656 139.95 72.781 162.95 122.52 27.245 230.75-39.17 215.67-154.05l29.294-111.12-94.954-53.538z" fill="url(#ba)"/>
  <path d="m587.38 411.93s10.298-9.8744 24.148-16.921c10.801-5.4956 25.148-7.0946 29.413-15.154 20.47-38.68 28.958-93.411-7.5761-131.07-15.775-16.259-43.566-27.197-65.846-36.42-27.786-11.502-71.22-38.864-95.778-43.382-50.084-9.2145-87.723 2.3457-137.38 13.637-38.22 8.6908-104.84-5.808-104.55-6.566 10.725 29.544 42.201 25.704 67.175 32.325-24.154-5.3552-46.174-5.9072-72.731-16.668-5.285 35.71 28.747 42.416 63.64 48.487-24.665-0.9142-57.839-9.1219-73.741-2.5254 17.747 14.882 37.892 28.165 52.023 45.457-12.106 5.9676-27.319 8.3092-43.437 9.5964 28.144 23.743 59.591 41.823 97.143 49.437 90.821 10.99 161.36-16.515 226.11-54.993 28.651 33.615 40.318 76.344 41.393 124.76z" fill="url(#ay)"/>
  <path d="m360.62 497.79c19.96 50.034 85.788 38.515 95.964 0" fill="none" stroke="#e4bd7c" stroke-linecap="round" stroke-linejoin="round" stroke-width="4.2"/>
  <path transform="matrix(1.1379 0 0 1.1379 762.35 -55.668)" d="m-350.52 403.59c0 4.0447-2.7136 7.3236-6.0609 7.3236-3.3474 0-6.0609-3.2789-6.0609-7.3236s2.7136-7.3236 6.0609-7.3236c3.3474 0 6.0609 3.2789 6.0609 7.3236z" fill="#3b3530"/>
  <path transform="matrix(1.1379 0 0 1.1379 877.76 -61.981)" d="m-350.52 403.59c0 4.0447-2.7136 7.3236-6.0609 7.3236-3.3474 0-6.0609-3.2789-6.0609-7.3236s2.7136-7.3236 6.0609-7.3236c3.3474 0 6.0609 3.2789 6.0609 7.3236z" fill="#3b3530"/>
  <path d="m380.39 578.55c-10.015-4.5934-25.254-6.0084-37.881-5.8084-10.713 0.1697-24.468 10.095-32.325 21.971-22.834 34.514-44.997 69.027-67.175 103.54l25.759 14.142c24.462-28.999 46.077-62.473 74.751-84.853-10.992 44.379-25.244 88.321-34.85 114.65l196.59 72.972c19.991-67.228 40.749-118.71 49.745-156.58 2.6465-14.136-42.793-18.925-42.793-18.925-5.7844 14.304-10.694 33.403-17.795 45.733-22.803 27.814-38.394 41.694-57.739 61.017l24.424 16.045c39.794-26.924 75.226-46.385 102.03-94.197 15.103-26.944 22.967-68.823-12.53-75.57l-46.487-8.8363c-5.7413-0.59702-17.55 1.3813-23.195 6.5072l-51.536 55.867c-14.222 15.417-27.096 7.9265-30.81-7.0711l-13.132-53.033c-0.8408-3.3954-2.292-6.3108-5.0508-7.5761z" fill="url(#ag)"/>
  <g transform="matrix(1.1351 0 0 1 338.98 -107.76)">
   <path d="m-229.99 914.09c-5.5002 4.6101-1.9002 27.45 4.8775 30.571l297.85 137.14c4.9518 2.28 15.49 1.7978 17.5-2.1429l63.93-125.39c4.9141-9.6361 0.54587-39.381-6.8037-41.682z" fill="#1a1a1a"/>
   <path d="m-131.18 813.95-97.857 97.857c-5.0747 5.0747-3.9205 13.308 2.8572 16.429l297.85 137.16c4.9518 2.28 7.3238 1.8219 9.2857-2.1428l68.574-138.64c4.7974-9.6948-1.3359-13.79-8.5714-16.429l-266.43-97.14c-2.0996-0.76555-3.1635 0.30638-5.7143 2.8571z" fill="url(#ah)"/>
   <path d="m-123.37 831.02-76.424 76.359c-5.6169 5.6121-1.196 10.997 2.3356 12.52l244.92 105.6c3.6996 1.5949 5.9915 1.1217 7.5908-1.633l58.189-100.29c2.267-3.9047 3.1363-8.8111-7.0069-12.52l-224.94-82.243c-1.8975-0.69379-3.5198 1.0268-4.6713 2.1773z" fill="url(#ai)" stroke="#4d4d4d" stroke-width=".78928px"/>
   <path d="m-175.01 929.57 86.821-89.57" fill="none" stroke="#4d4d4d" stroke-width="1px"/>
   <path d="m-134.38 947.09 82.726-93.74" fill="none" stroke="#4d4d4d" stroke-width="1px"/>
   <path d="m-97.421 963.02 79.912-97.184" fill="none" stroke="#4d4d4d" stroke-width="1px"/>
   <path d="m-57.656 980.17 75.732-101.32" fill="none" stroke="#4d4d4d" stroke-width="1px"/>
   <path d="m-17.919 997.3 68.336-106.63" fill="none" stroke="#4d4d4d" stroke-width="1px"/>
   <path d="m21.193 1015.6 64.097-112.18" fill="none" stroke="#4d4d4d" stroke-width="1px"/>
   <path d="m-130.56 838.21 240.35 91.358" fill="none" stroke="#4d4d4d" stroke-width="1px"/>
   <path d="m-141.17 848.81 243.81 93.08" fill="none" stroke="#4d4d4d" stroke-width="1px"/>
   <path d="m-153.8 861.43 247.39 96.04" fill="none" stroke="#4d4d4d" stroke-width="1px"/>
   <path d="m-166.82 874.43 250.15 100.71" fill="none" stroke="#4d4d4d" stroke-width="1px"/>
   <path d="m-180.46 888.06 253.26 105.23" fill="none" stroke="#4d4d4d" stroke-width="1px"/>
   <path d="m-193.98 901.57 257.04 108.53" fill="none" stroke="#4d4d4d" stroke-width="1px"/>
  </g>
  <path d="m245.87 698.32c-9.8266 10.861-26.517 36.42-37.761 45.394-6.6034 5.2708-6.2323 5.7178-9.7392 7.1056-22.548 8.9228-37.143 15.714-55.714 23.571-7.0653 2.9892 1.7923 7.8473 5 9.2857 4.6898 2.1031 15-3.5714 15-3.5714l-12.857 18.929c-7.9806 11.749 3.3534 20.113 13.929 9.2857l15-15.357 3.9285 21.786c2.7694 15.358 19.924 3.6627 18.214-3.5714l-4.6428-19.643c-1.2703-5.3745 4.468-10.065 17.143-8.5714l23.528 16.013c12.238-0.83923 15.124-9.6186 7.9005-14.942l-13.571-10c-5.0873-3.7486 1.2734-9.8408 2.8571-14.643l33.571-52.5z" fill="url(#ae)"/>
  <path d="m439.26 742.08-60.714 70c-1.9762 2.2785-3.427 3.1094-10.097 2.4746-7.3402-0.69856-21.066-4.0942-26.331-3.7246-17.031 1.1955-8.7701 11.101-1.4286 12.857 6.8353 1.6347 10.244 5.3342 15 6.6071l-22.5 11.786c-9.2099 4.8242-9.8279 17.112 6.4286 10l17.143-7.5c19.785-8.656-2.1805 18.67-7.8572 27.857-5.8124 9.407-0.47013 19.949 10.714 5.7143l19.643-25c5.1737-6.5848 15.518-3.5613 13.571 1.0714l-5.1786 12.321c-4.4686 10.632 4.6674 20.259 13.036 3.75 2.8591-5.6404 5.1789-16.928 5.7142-25.357 0.57872-9.1123-2.2975-16.266 2.1429-21.429l59.286-68.929z" fill="url(#ad)"/>
  <path d="m511.14 640.85 34.98 8.7367c6.345 1.5847 8.978 4.9978 7.3566 12.08-7.1398 59.594-57.464 84.822-90.141 104.24l-29.971-21.374c19.632-20.443 39.463-42.645 55.171-61.345 10.576-12.59 15.747-27.883 22.605-42.333z" fill="url(#aj)"/>
  <path d="m345.64 624.87c11.481-3.6784-3.809-47.176-28.933-36.361-31.776 43.756-49.909 71.532-73.561 108.94l25.302 15.452c24.756-29.232 50.623-66.656 77.191-88.034z" fill="url(#ak)"/>
  <g transform="translate(726.62 -19.556)">
   <path d="m59.643 765.58c-52.566 35.67-57.249 85.62-61.429 135.71z" fill="#1a1a1a" stroke="#000" stroke-width="1px"/>
   <path d="m-14.121 733.25 74.483 29.904c0.50917 0.20443 0.74214 0.69059 0.50822 0.99469-29.57 38.442-53.734 83.262-61.895 137.08-0.023191 0.34851-0.57184 0.58157-1.0065 0.33061l-93.154-44.842c-0.54038-0.26013-0.77297-0.67895-0.42192-1.4778 18.629-42.391 33.879-90.449 76.617-121.61 1.4875-1.0845 3.1936-1.0691 4.8693-0.37866z" fill="url(#al)"/>
   <path d="m-8.9286 773.43c6.9221-12.008 21.194-9.9026 16.429 7.8571-3.1573 11.766-12.307 17.968-20.714 23.571-0.75099-12.478-1.8363-20.809 4.2857-31.429z" fill="url(#am)"/>
  </g>
  <path d="m585.58 393.91c5.5952-6.762 32.475 12.571 25.324 31.398-5.7747 15.204-4.0208 22.652-27.602 26.179z" fill="url(#ax)"/>
  <path d="m598.94 408.68c-3.1028 2.0176-6.4177 3.7215-5.6845 11.415-2.7061 3.9194-3.1749 9.1764 0.0905 16.665 3.2776-1.1696 4.825-8.4535 8.6041-10.455-4.1832-11.066 1.2093-12.488-3.0101-17.625z" fill="#e4bd7c"/>
 </g>
</svg>
